<svg width="32" height="32" viewBox="0 0 32 32" fill="none" xmlns="http://www.w3.org/2000/svg">
<rect width="32" height="32" rx="6" fill="#FFC400"/>
<path d="M15.8023 22.4193C13.5123 22.4193 12.1883 20.7537 12.1883 18.7064C12.1883 16.6591 13.5123 15.2017 15.8023 15.2017H17.0547C17.6629 15.2017 18.9869 15.0629 19.3447 14.7159H19.3805V18.7064C19.3805 21.1354 18.0923 22.4193 15.8023 22.4193ZM15.8023 26.9997C20.8833 26.9997 24.5688 24.0155 24.5688 18.7064V5H19.3805V7.77598C19.3805 9.51097 18.8795 10.6214 16.2317 10.6214H15.8023C11.1865 10.6214 7 13.4667 7 18.7064C7 23.9461 10.7213 26.9997 15.8023 26.9997Z" fill="#481453"/>
</svg>
